<svg width="120" height="77" viewBox="0 0 120 77" fill="none" xmlns="http://www.w3.org/2000/svg">
<path d="M113.888 61.7383H96.0854L95.4757 45.6428H113.888V61.7383Z" fill="#EB4984"/>
<circle cx="45.2382" cy="30.1571" r="7.19421" fill="#EB4984"/>
<circle cx="17.4368" cy="11.1351" r="4.75549" fill="#EB4984"/>
<circle cx="101.816" cy="11.6227" r="4.75549" fill="#EB4984"/>
<path d="M60.6021 6.62329V15.0369L51.213 15.4027V6.62329H60.6021Z" fill="#EB4984"/>
<path fill-rule="evenodd" clip-rule="evenodd" d="M110.92 9.06519V17.0538H108.653V5.66575H110.92L117.718 13.5978V0H119.985V16.9972H117.718L110.92 9.06519ZM54.3612 12.4554H62.1264V10.1891H54.3612V12.4554ZM60.5935 7.92281V5.65651H49.262V16.988H60.5935V14.7217H51.5283V7.92281H60.5935ZM5.90961 14.7309H11.5754V16.9972H5.90961C4.33972 16.9972 3.00001 16.4484 1.89047 15.3506C0.792729 14.2411 0.24386 12.9014 0.24386 11.3315C0.24386 9.76161 0.792729 8.4278 1.89047 7.33006C3.00001 6.22052 4.33972 5.66575 5.90961 5.66575H11.5754V7.93204H5.90961C4.96531 7.93204 4.16267 8.26255 3.50166 8.92355C2.84066 9.58455 2.51016 10.3872 2.51016 11.3315C2.51016 12.2758 2.84066 13.0784 3.50166 13.7394C4.16267 14.4004 4.96531 14.7309 5.90961 14.7309ZM17.0818 16.9972C15.5119 16.9972 14.1722 16.4484 13.0626 15.3506C11.9649 14.2411 11.416 12.9014 11.416 11.3315C11.416 9.76161 11.9649 8.4278 13.0626 7.33006C14.1722 6.22052 15.5119 5.66575 17.0818 5.66575C18.6516 5.66575 19.9854 6.22052 21.0832 7.33006C22.1927 8.4278 22.7475 9.76161 22.7475 11.3315C22.7475 12.9014 22.1927 14.2411 21.0832 15.3506C19.9854 16.4484 18.6516 16.9972 17.0818 16.9972ZM17.0818 14.7309C18.026 14.7309 18.8287 14.4004 19.4897 13.7394C20.1507 13.0784 20.4812 12.2758 20.4812 11.3315C20.4812 10.3872 20.1507 9.58455 19.4897 8.92355C18.8287 8.26255 18.026 7.93204 17.0818 7.93204C16.1375 7.93204 15.3348 8.26255 14.6738 8.92355C14.0128 9.58455 13.6823 10.3872 13.6823 11.3315C13.6823 12.2758 14.0128 13.0784 14.6738 13.7394C15.3348 14.4004 16.1375 14.7309 17.0818 14.7309ZM35.3892 14.7309H26.324V5.66575H24.0577V16.9972H35.3892V14.7309ZM38.9126 14.7309H47.9778V16.9972H36.6463V5.66575H38.9126V14.7309ZM68.8982 14.7309H76.8302V16.9972H68.8982C67.3283 16.9972 65.9886 16.4484 64.879 15.3506C63.7813 14.2411 63.2324 12.9014 63.2324 11.3315C63.2324 9.76161 63.7813 8.4278 64.879 7.33006C65.9886 6.22052 67.3283 5.66575 68.8982 5.66575H77.9634L76.8302 7.93204H68.8982C67.9539 7.93204 67.1512 8.26255 66.4902 8.92355C65.8292 9.58455 65.4987 10.3872 65.4987 11.3315C65.4987 12.2758 65.8292 13.0784 66.4902 13.7394C67.1512 14.4004 67.9539 14.7309 68.8982 14.7309ZM86.6453 17.0538V7.93204H91.1779V5.66575H79.8464V7.93204H84.379V17.0538H86.6453ZM94.7013 16.9972H92.435V5.66575H94.7013V16.9972ZM97.6581 15.3506C98.7677 16.4484 100.107 16.9972 101.677 16.9972C103.247 16.9972 104.581 16.4484 105.679 15.3506C106.788 14.2411 107.343 12.9014 107.343 11.3315C107.343 9.76161 106.788 8.4278 105.679 7.33006C104.581 6.22052 103.247 5.66575 101.677 5.66575C100.107 5.66575 98.7677 6.22052 97.6581 7.33006C96.5604 8.4278 96.0115 9.76161 96.0115 11.3315C96.0115 12.9014 96.5604 14.2411 97.6581 15.3506ZM104.085 13.7394C103.424 14.4004 102.622 14.7309 101.677 14.7309C100.733 14.7309 99.9303 14.4004 99.2693 13.7394C98.6083 13.0784 98.2778 12.2758 98.2778 11.3315C98.2778 10.3872 98.6083 9.58455 99.2693 8.92355C99.9303 8.26255 100.733 7.93204 101.677 7.93204C102.622 7.93204 103.424 8.26255 104.085 8.92355C104.746 9.58455 105.077 10.3872 105.077 11.3315C105.077 12.2758 104.746 13.0784 104.085 13.7394ZM0 41.2532H26.3381C28.1671 41.2532 29.7218 40.613 31.0022 39.3327C32.2825 38.0524 32.9226 36.4977 32.9226 34.6686C32.9226 32.8396 32.2825 31.2849 31.0022 30.0046C29.7218 28.7243 28.1671 28.0841 26.3381 28.0841H17.5587C16.9414 28.0841 16.4156 27.8783 15.9812 27.4668C15.5697 27.0324 15.3639 26.5066 15.3639 25.8893C15.3639 25.272 15.5697 24.7576 15.9812 24.346C16.4156 23.9116 16.9414 23.6944 17.5587 23.6944H30.7278V19.3047H17.5587C15.7297 19.3047 14.175 19.9449 12.8947 21.2252C11.6144 22.5056 10.9742 24.0602 10.9742 25.8893C10.9742 27.7183 11.6144 29.273 12.8947 30.5533C14.175 31.8336 15.7297 32.4738 17.5587 32.4738H26.3381C26.9554 32.4738 27.4698 32.691 27.8814 33.1254C28.3158 33.5369 28.533 34.0513 28.533 34.6686C28.533 35.2859 28.3158 35.8118 27.8814 36.2462C27.4698 36.6577 26.9554 36.8635 26.3381 36.8635H0V41.2532ZM43.0395 30.279L46.6404 36.7263C46.1831 36.8178 45.7145 36.8635 45.2343 36.8635C43.4053 36.8635 41.8506 36.2233 40.5703 34.943C39.29 33.6627 38.6498 32.108 38.6498 30.279C38.6498 28.4499 39.29 26.8952 40.5703 25.6149C41.8506 24.3346 43.4053 23.6944 45.2343 23.6944C47.0634 23.6944 48.618 24.3346 49.8984 25.6149C51.1787 26.8952 51.8189 28.4499 51.8189 30.279C51.8189 32.0623 51.2016 33.5941 49.967 34.8744L47.4292 30.279H43.0395ZM58.4034 50.0325L52.1618 38.8183C52.459 38.5668 52.7448 38.3038 53.0192 38.0295C55.1454 35.9032 56.2085 33.3197 56.2085 30.279C56.2085 27.2382 55.134 24.6547 52.9849 22.5284C50.8586 20.3793 48.2751 19.3047 45.2343 19.3047C42.1936 19.3047 39.5986 20.3793 37.4495 22.5284C35.3232 24.6547 34.2601 27.2382 34.2601 30.279C34.2601 33.3197 35.3232 35.9147 37.4495 38.0638C39.5986 40.19 42.1936 41.2532 45.2343 41.2532C46.5147 41.2532 47.715 41.0703 48.8352 40.7045L54.0137 50.0325H58.4034ZM58.5063 30.279V19.3047H62.896V30.279C62.896 32.108 63.5361 33.6627 64.8164 34.943C66.0968 36.2233 67.6515 36.8635 69.4805 36.8635C71.3095 36.8635 72.8642 36.2233 74.1445 34.943C75.4249 33.6627 76.065 32.108 76.065 30.279V19.3047H80.4547V30.279C80.4547 33.3197 79.3801 35.9147 77.231 38.0638C75.1048 40.19 72.5213 41.2532 69.4805 41.2532C66.4397 41.2532 63.8448 40.19 61.6957 38.0638C59.5694 35.9147 58.5063 33.3197 58.5063 30.279ZM84.2957 41.2532H88.6854V19.3047H84.2957V41.2532ZM108.919 41.2532H93.5552V19.3047H108.919C111.96 19.3047 114.543 20.3793 116.67 22.5284C118.819 24.6547 119.893 27.2382 119.893 30.279C119.893 33.3197 118.819 35.9147 116.67 38.0638C114.543 40.19 111.96 41.2532 108.919 41.2532ZM97.9448 36.8635H108.919C110.748 36.8635 112.303 36.2233 113.583 34.943C114.863 33.6627 115.504 32.108 115.504 30.279C115.504 28.4499 114.863 26.8952 113.583 25.6149C112.303 24.3346 110.748 23.6944 108.919 23.6944H97.9448V36.8635ZM48.4695 41.9847L37.4953 65.0306H42.4337L48.4695 52.4102L54.5053 65.0306H59.4437L48.4695 41.9847ZM35.8492 43.0822H18.2904C15.2497 43.0822 12.6547 44.1567 10.5056 46.3058C8.37934 48.4321 7.31621 51.0156 7.31621 54.0564C7.31621 57.0971 8.37934 59.6921 10.5056 61.8412C12.6547 63.9675 15.2497 65.0306 18.2904 65.0306H31.9396L38.044 76.0048H42.4337L29.2646 51.8615H18.2904V56.2512H27.0698L29.5047 60.6409H18.2904C16.4614 60.6409 14.9067 60.0007 13.6264 58.7204C12.3461 57.4401 11.7059 55.8854 11.7059 54.0564C11.7059 52.2273 12.3461 50.6727 13.6264 49.3923C14.9067 48.112 16.4614 47.4718 18.2904 47.4718H33.6543L35.8492 43.0822ZM65.1366 51.8615V73.81H60.7469V43.0822H65.1366L73.916 59.5435L82.6953 43.0822H87.085V65.0306H82.6953V51.8615L76.1108 65.0306H71.7211L65.1366 51.8615ZM101.832 56.2512H120V51.8615H101.832V56.2512ZM113.903 47.4718V43.0822H91.9548V65.0306H113.903V60.6409H96.3445V47.4718H113.903Z" fill="white"/>
<path d="M56.7001 65.0306H41.5801L49.262 50.2764L56.7001 65.0306Z" fill="#EB4984"/>
</svg>
